<svg xmlns="http://www.w3.org/2000/svg" width="100" height="100" viewBox="0 0 100 100">
  <metadata><?xpacket begin="﻿" id="W5M0MpCehiHzreSzNTczkc9d"?>
<x:xmpmeta xmlns:x="adobe:ns:meta/" x:xmptk="Adobe XMP Core 5.6-c138 79.159824, 2016/09/14-01:09:01        ">
   <rdf:RDF xmlns:rdf="http://www.w3.org/1999/02/22-rdf-syntax-ns#">
      <rdf:Description rdf:about=""/>
   </rdf:RDF>
</x:xmpmeta>
                                                                                                    
                                                                                                    
                                                                                                    
                                                                                                    
                                                                                                    
                                                                                                    
                                                                                                    
                                                                                                    
                                                                                                    
                                                                                                    
                                                                                                    
                                                                                                    
                                                                                                    
                                                                                                    
                                                                                                    
                                                                                                    
                                                                                                    
                                                                                                    
                                                                                                    
                                                                                                    
                           
<?xpacket end="w"?></metadata>
<defs>
    <style>
      .cls-1 {
        fill: #fff;
        fill-rule: evenodd;
      }
    </style>
  </defs>
  <path id="logo" class="cls-1" d="M88.587,4.155a2.331,2.331,0,0,1,0-3.445,2.719,2.719,0,0,1,3.671,0l0.349,0.328a2.331,2.331,0,0,1,0,3.445,2.718,2.718,0,0,1-3.671,0ZM88.238,31.278a7.3,7.3,0,0,1,7.508,7.045,7.523,7.523,0,0,1-15.015,0A7.3,7.3,0,0,1,88.238,31.278Zm0,4.872a2.177,2.177,0,1,0,2.316,2.173A2.25,2.25,0,0,0,88.238,36.15ZM100,66.575V69.5a7.146,7.146,0,0,1-7.354,6.9H90.483V89.528C90.483,95.3,85.477,100,79.324,100H20.676c-6.153,0-11.159-4.7-11.159-10.471V76.4H7.354A7.146,7.146,0,0,1,0,69.5V66.575a7.146,7.146,0,0,1,7.354-6.9H9.517v-7.2a2.52,2.52,0,0,1,2.6-2.436H87.888a2.52,2.52,0,0,1,2.6,2.436v7.2h2.163A7.146,7.146,0,0,1,100,66.575ZM9.517,64.546H7.354a2.1,2.1,0,0,0-2.162,2.029V69.5a2.1,2.1,0,0,0,2.162,2.029H9.517V64.546Zm75.775-9.634H14.708V89.528a5.8,5.8,0,0,0,5.968,5.6H79.324a5.8,5.8,0,0,0,5.968-5.6V54.912Zm9.517,11.663a2.1,2.1,0,0,0-2.162-2.029H90.483v6.979h2.163A2.1,2.1,0,0,0,94.808,69.5V66.575ZM81.4,19.519a2.678,2.678,0,0,0,1.835-.713l0.349-.328a2.331,2.331,0,0,0,0-3.445,2.717,2.717,0,0,0-3.671,0l-0.35.328a2.331,2.331,0,0,0,0,3.445A2.68,2.68,0,0,0,81.4,19.519ZM59.883,45.225a2.6,2.6,0,0,0,5.192,0,3.726,3.726,0,0,1,7.437,0,2.6,2.6,0,0,0,5.191,0A8.928,8.928,0,0,0,59.883,45.225ZM11.4,41.579a2.434,2.434,0,0,1,1.929-2.931l28.2-6.256-0.5-1.975a6.9,6.9,0,0,1,5.465-8.3l3.029-.672a7.4,7.4,0,0,1,8.849,5.128l0.5,1.975,28.2-6.257a2.608,2.608,0,0,1,3.123,1.81,2.434,2.434,0,0,1-1.929,2.931L14.523,43.389a2.745,2.745,0,0,1-.6.066A2.571,2.571,0,0,1,11.4,41.579ZM46.083,29.3l0.5,1.974,7.238-1.605-0.5-1.975a2.144,2.144,0,0,0-2.1-1.563,2.3,2.3,0,0,0-.5.054l-3.029.672A2.03,2.03,0,0,0,46.083,29.3Z"/>
</svg>
